# xmcd
#
# Track frame offsets: 
#        150
#        24166
#        78263
#        115902
#        132597
#        171133
#        208793
#        276800
#        303773
#
# Disc length: 4648 seconds
#
# Revision: 0
# Processed by: cddbd v1.5.2PL0 Copyright (c) Steve Scherf et al.
# Submitted via: ExactAudioCopy v0.95b3
#
DISCID=71122609
DTITLE=King Crimson  - Frankfurt - Zoom Club (Apr 12, 1971)  FLAC
DYEAR=1900
DGENRE=
TTITLE0=Cirkus
TTITLE1=Get Thy Bearings
TTITLE2=In The Court Of The Crimson King
TTITLE3=Lady Of The Dancing Water
TTITLE4=21st Century Schizoid Man
TTITLE5=Pictures Of A City
TTITLE6=The Sailor's Tale
TTITLE7=Cadence And Cascade
TTITLE8=The Devil's Triangle
EXTD=
EXTT0=
EXTT1=
EXTT2=
EXTT3=
EXTT4=
EXTT5=
EXTT6=
EXTT7=
EXTT8=
PLAYORDER=
